<svg id="图层_1" data-name="图层 1" xmlns="http://www.w3.org/2000/svg" viewBox="0 0 16.81 17.5"><title>筛选</title><path class="cls-1" d="M17.36.68a.74.74,0,0,0-.67-.43H1.38A.75.75,0,0,0,.7.68a.74.74,0,0,0,.09.79L6.25,8.26v.86h1.5V8a.73.73,0,0,0-.17-.47L2.94,1.75H15.11L10.42,7.53a.73.73,0,0,0-.17.47v8l-2.5-.72V14H6.25v1.86a.75.75,0,0,0,.54.72l4,1.14a.76.76,0,0,0,.21,0,.75.75,0,0,0,.75-.75V8.27l5.52-6.8A.73.73,0,0,0,17.36.68Z" transform="translate(-0.62 -0.25)"/><path class="cls-1" d="M9.6,15V6.58l3.09-3.5a.29.29,0,0,0-.22-.49H5.68a.29.29,0,0,0-.21.49l3,3.52v8Z" transform="translate(-0.62 -0.25)"/><rect class="cls-1" x="3.91" y="9.53" width="3" height="1.5"/><rect class="cls-1" x="3.94" y="11.75" width="3" height="1.5"/></svg>
