<?xml version="1.0" encoding="UTF-8" ?>
<svg width="16px" height="18px" viewBox="0 0 16 18" version="1.1" xmlns="http://www.w3.org/2000/svg" xmlns:xlink="http://www.w3.org/1999/xlink">
    <!-- Generator: Sketch 57 (83077) - https://sketch.com -->
    <title>资产配置</title>
    <desc>Created with Sketch.</desc>
    <defs>
        <polygon id="path-1" points="0.1874 0.73 8.458 0.73 8.458 9 0.1874 9"></polygon>
    </defs>
    <g id="Page-1" stroke="none" stroke-width="1" fill-rule="evenodd">
        <g id="导航图标" transform="translate(-68.000000, -799.000000)">
            <g id="Group-38" transform="translate(0.000000, -1.000000)">
                <g id="Group-29" transform="translate(0.000000, 0.991836)">
                    <g id="编组" transform="translate(66.000000, 46.008164)">
                        <g id="资产配置" transform="translate(2.000000, 753.000000)">
                            <path d="M5.841,8.1939 C4.548,8.1939 3.499,7.1449 3.499,5.8629 C3.499,4.5699 4.548,3.5209 5.841,3.5209 C7.123,3.5209 8.172,4.5699 8.172,5.8629 C8.172,7.1449 7.123,8.1939 5.841,8.1939 L5.841,8.1939 Z M11.672,6.5749 L11.672,5.0329 L10.465,4.7099 C10.343,4.2189 10.148,3.7589 9.889,3.3409 L10.485,2.2319 L9.394,1.1419 L8.299,1.7749 C7.882,1.5219 7.428,1.3279 6.94,1.2129 L6.575,-0.0001 L5.033,-0.0001 L4.706,1.2229 C4.22,1.3409 3.766,1.5339 3.351,1.7879 L2.232,1.1869 L1.141,2.2769 L1.77,3.3639 C1.513,3.7839 1.318,4.2429 1.198,4.7359 L0,5.0959 L0,6.6379 L1.189,6.9559 C1.307,7.4579 1.507,7.9259 1.77,8.3529 L1.186,9.4389 L2.277,10.5299 L3.334,9.9189 C3.765,10.1839 4.237,10.3849 4.745,10.5049 L5.096,11.6719 L6.638,11.6719 L6.952,10.4989 C7.459,10.3769 7.932,10.1749 8.362,9.9069 L9.439,10.4849 L10.53,9.3939 L9.915,8.3299 C10.174,7.9009 10.375,7.4339 10.49,6.9309 L11.672,6.5749 Z" id="Fill-1"></path>
                            <g id="编组" transform="translate(7.000000, 8.512700)">
                                <mask id="mask-2">
                                    <use xlink:href="#path-1"></use>
                                </mask>
                                <g id="Clip-4"></g>
                                <path d="M4.4284,6.523 C3.5194,6.579 2.7364,5.885 2.6814,4.984 C2.6254,4.075 3.3184,3.293 4.2274,3.237 C5.1284,3.182 5.9114,3.875 5.9674,4.784 C6.0224,5.685 5.3294,6.467 4.4284,6.523 L4.4284,6.523 Z M8.4584,5.134 L8.3924,4.049 L7.5304,3.875 C7.4234,3.535 7.2674,3.219 7.0664,2.937 L7.4384,2.131 L6.6234,1.411 L5.8814,1.903 C5.5764,1.744 5.2494,1.627 4.9014,1.567 L4.5924,0.73 L3.5084,0.795 L3.3304,1.669 C2.9934,1.774 2.6834,1.928 2.4024,2.125 L1.5894,1.75 L0.8694,2.564 L1.3584,3.301 C1.1954,3.607 1.0774,3.939 1.0144,4.29 L0.1874,4.595 L0.2544,5.679 L1.1034,5.852 C1.2084,6.2 1.3684,6.52 1.5724,6.809 L1.2084,7.598 L2.0224,8.318 L2.7394,7.843 C3.0534,8.011 3.3944,8.132 3.7564,8.195 L4.0534,9 L5.1384,8.934 L5.3084,8.095 C5.6594,7.989 5.9844,7.827 6.2754,7.619 L7.0564,7.979 L7.7774,7.166 L7.2984,6.444 C7.4624,6.131 7.5834,5.794 7.6434,5.435 L8.4584,5.134 Z" id="Fill-3"></path>
                            </g>
                        </g>
                    </g>
                </g>
            </g>
        </g>
    </g>
</svg>