<?xml version="1.0" encoding="UTF-8" ?>
<svg width="18px" height="15px" viewBox="0 0 18 15" version="1.1" xmlns="http://www.w3.org/2000/svg" xmlns:xlink="http://www.w3.org/1999/xlink">
    <!-- Generator: Sketch 57 (83077) - https://sketch.com -->
    <title>内网渗透</title>
    <desc>Created with Sketch.</desc>
    <g id="Page-1" stroke="none" stroke-width="1" fill-rule="evenodd">
        <g id="导航模块02" transform="translate(-112.000000, -211.000000)">
            <g id="Group-Copy-4">
                <g id="Group-38">
                    <g id="Group-29" transform="translate(0.000000, 0.991836)">
                        <g id="编组" transform="translate(0.000000, 116.008164)">
                            <g id="内网渗透" transform="translate(112.000000, 94.000000)">
                                <polygon id="Fill-1" points="0.9999 -1.77635684e-15 0.9999 2.98 2.9099 2.98 2.9099 0.661 8.9899 5.44 15.0699 0.661 15.0699 2.98 16.9799 2.98 16.9799 -1.77635684e-15"></polygon>
                                <polygon id="Fill-2" points="2.9097 10.2897 2.9097 7.9597 0.9997 7.9597 0.9997 11.0597 5.9397 11.0597 5.9397 12.9367 4.0027 12.9367 4.0027 14.0537 13.9817 14.0537 13.9817 12.9367 12.0437 12.9367 12.0437 11.0597 16.9797 11.0597 16.9797 7.9597 15.0697 7.9597 15.0697 10.2897 8.9897 5.4797"></polygon>
                                <polygon id="Fill-3" points="3.9096 3.9798 -0.0004 3.9798 -0.0004 6.9598 3.9096 6.9598 3.9096 8.2298 7.4096 5.4698 3.9096 2.7198"></polygon>
                                <polygon id="Fill-4" points="10.5804 5.4702 14.0694 8.2292 14.0694 6.9602 17.9794 6.9602 17.9794 3.9802 14.0694 3.9802 14.0694 2.7202"></polygon>
                            </g>
                        </g>
                    </g>
                </g>
            </g>
        </g>
    </g>
</svg>