<?xml version="1.0" encoding="UTF-8"?>
<svg width="18px" height="10px" viewBox="0 0 18 10" version="1.1" xmlns="http://www.w3.org/2000/svg" xmlns:xlink="http://www.w3.org/1999/xlink">
    <!-- Generator: Sketch 56.3 (81716) - https://sketch.com -->
    <title>外部攻击</title>
    <desc>Created with Sketch.</desc>
    <g id="Page-1" stroke="none" stroke-width="1" fill-rule="evenodd">
        <g id="导航模块02备份-2" transform="translate(-20.000000, -111.000000)" fill-rule="nonzero">
            <g id="Group-Copy-4" transform="translate(0.000000, -1.000000)">
                <g id="Group-38">
                    <g id="Group-29" transform="translate(0.000000, 0.991836)">
                        <g id="编组" transform="translate(0.000000, 69.008164)">
                            <g id="外部攻击" transform="translate(20.000000, 42.000000)">
                                <rect id="矩形" x="6" y="2.11" width="2" height="4.8"></rect>
                                <path d="M15.6,2.10997896 L9,2.10997896 L9,6.91002104 L15.6,6.91002104 C16.237335,6.9126723 16.8493383,6.66067411 17.3000062,6.21000622 C17.7506741,5.75933832 18.0026723,5.14733504 18.000021,4.51 C18.0026723,3.87266496 17.7506741,3.26066168 17.3000062,2.80999378 C16.8493383,2.35932589 16.237335,2.1073277 15.6,2.10997896 Z" id="路径"></path>
                                <rect id="矩形" x="0" y="2.01" width="5" height="1"></rect>
                                <rect id="矩形" x="0" y="4.01" width="5" height="1"></rect>
                                <rect id="矩形" x="0" y="6.01" width="5" height="1"></rect>
                                <rect id="矩形" x="5" y="0.01" width="7" height="1"></rect>
                                <rect id="矩形" x="5" y="8.01" width="7" height="1"></rect>
                            </g>
                        </g>
                    </g>
                </g>
            </g>
        </g>
    </g>
</svg>