<svg height="23" viewBox="0 0 26 23" width="26" xmlns="http://www.w3.org/2000/svg"><path d="m.0002 11 .722-3.01c.27-1.129 1.012-2.089 2.037-2.636l3.039-1.62-2.248-2.481c.995-.189 1.948-.347 2.839-.477.572 1.812 2.943 6.407 6.539 6.407 1.666 0 4.647-1.453 5.904-6.482 2.028.342 3.437.708 3.437.708l-2.365 2.325 2.932 1.633c.976.541 1.683 1.46 1.959 2.539l.793 3.094z" transform="translate(0 11.3389)"/><path d="m15.3112 12.3569c-.984 0-1.833-.573-2.233-1.403 1.662-.022 3.266-.231 4.66-.578-.23 1.13-1.229 1.981-2.427 1.981m-4.995 0c-1.213 0-2.221-.872-2.435-2.022 1.431.374 3.056.602 4.667.621-.401.829-1.249 1.401-2.232 1.401m8.16-7.48s-1.989-4.877-3.666-4.877c-1.047 0-2.055 1.387-2.055 1.387s-.736-1.387-2.015-1.387c-1.553 0-3.488 4.877-3.488 4.877s-3.993.277-3.993 2.293c0 1.183 1.676 2.283 4 2.988.201 1.666.871 4.904 3.094 6.719 1.354 1.106 3.28 1.17 4.707.157 1.443-1.026 3.107-3.026 3.359-6.844 2.346-.698 3.948-1.815 3.948-3.098 0-2.171-3.891-2.215-3.891-2.215"/></svg>