<svg height="17" viewBox="0 0 13 17" width="13" xmlns="http://www.w3.org/2000/svg"><g fill-rule="evenodd"><path d="m2.05620848 6.49979437c0-2.45009491 1.9935938-4.44368871 4.4436887-4.44368871 2.45009491 0 4.44368872 1.9935938 4.44368872 4.44368871s-1.99359381 4.44368873-4.44368872 4.44368873c-2.4500949 0-4.4436887-1.99359382-4.4436887-4.44368873m4.44379152-6.49979437c-3.58415059 0-6.5 2.91584941-6.5 6.5 0 3.23354951 2.3760677 5.9139513 5.47184435 6.4105505v1.0902169h-2.45665662v2.0144963h6.99345047v-2.0144963h-2.48048255v-1.0902169c3.09577665-.4965992 5.47184435-3.17700099 5.47184435-6.4105505 0-3.58415059-2.9158494-6.5-6.5-6.5z"/><path d="m6.5358615 3.5358c-1.65643511 0-2.9994615 1.34278536-2.9994615 3s1.34302639 3 2.9994615 3c1.65751211 0 3.0005385-1.34278536 3.0005385-3s-1.34302639-3-3.0005385-3z"/></g></svg>