<?xml version="1.0" encoding="UTF-8" ?>
<svg width="14px" height="16px" viewBox="0 0 14 16" version="1.1" xmlns="http://www.w3.org/2000/svg" xmlns:xlink="http://www.w3.org/1999/xlink">
    <!-- Generator: Sketch 57 (83077) - https://sketch.com -->
    <title>日志调查</title>
    <desc>Created with Sketch.</desc>
    <g id="Page-1" stroke="none" stroke-width="1" fill-rule="evenodd">
        <g id="导航模块02" transform="translate(-443.000000, -210.000000)">
            <g id="Group-Copy-4">
                <g id="Group-38">
                    <g id="Group-29" transform="translate(0.000000, 0.991836)">
                        <g id="编组" transform="translate(0.000000, 116.008164)">
                            <g id="日志调查" transform="translate(443.000000, 93.000000)">
                                <path d="M9.0423,-0.0003 L9.0423,1.2497 L4.3753,1.2497 L4.3753,-0.0003 L2.8753,-0.0003 L2.8753,1.2497 L0.0003,1.2497 L0.0003,15.9797 L13.5003,15.9797 L13.5003,1.2497 L10.5423,1.2497 L10.5423,-0.0003 L9.0423,-0.0003 Z M10.5423,4.0007 L10.5423,2.7497 L12.0003,2.7497 L12.0003,14.4797 L1.5003,14.4797 L1.5003,2.7497 L2.8753,2.7497 L2.8753,4.0007 L4.3753,4.0007 L4.3753,2.7497 L9.0423,2.7497 L9.0423,4.0007 L10.5423,4.0007 Z" id="Fill-1"></path>
                                <polygon id="Fill-2" points="2.739 8.5382 6.331 8.5382 6.331 4.9952 2.739 4.9952"></polygon>
                                <polygon id="Fill-3" points="2.705 13.0082 6.367 13.0082 6.367 9.4652 2.705 9.4652"></polygon>
                                <polygon id="Fill-4" points="7.137 8.5382 10.728 8.5382 10.728 4.9952 7.137 4.9952"></polygon>
                                <polygon id="Fill-5" points="7.103 13.0082 10.764 13.0082 10.764 9.4652 7.103 9.4652"></polygon>
                            </g>
                        </g>
                    </g>
                </g>
            </g>
        </g>
    </g>
</svg>