<?xml version="1.0" encoding="UTF-8" ?>
<svg width="16px" height="16px" viewBox="0 0 16 16" version="1.1" xmlns="http://www.w3.org/2000/svg" xmlns:xlink="http://www.w3.org/1999/xlink">
    <!-- Generator: Sketch 57 (83077) - https://sketch.com -->
    <title>开放登录后台</title>
    <desc>Created with Sketch.</desc>
    <defs>
        <polygon id="path-1" points="0 0.8584 15.938 0.8584 15.938 16 0 16"></polygon>
    </defs>
    <g id="Page-1" stroke="none" stroke-width="1" fill-rule="evenodd">
        <g id="导航模块02" transform="translate(-268.000000, -251.000000)">
            <g id="Group-Copy-4">
                <g id="Group-38">
                    <g id="Group-29" transform="translate(0.000000, 0.991836)">
                        <g id="编组" transform="translate(0.000000, 116.008164)">
                            <g id="开放登录后台" transform="translate(268.000000, 133.000000)">
                                <g id="编组" transform="translate(0.000000, 0.141600)">
                                    <mask id="mask-2" fill="white">
                                        <use xlink:href="#path-1"></use>
                                    </mask>
                                    <g id="Clip-2"></g>
                                    <path d="M1.5,2.3584 L14.438,2.3584 L14.438,11.7354 L11.406,11.7354 L11.406,9.9604 C11.406,8.9094 10.555,8.0574 9.504,8.0574 L6.434,8.0574 C5.383,8.0574 4.532,8.9094 4.532,9.9604 L4.532,11.7354 L1.5,11.7354 L1.5,2.3584 Z M15.938,13.2354 L15.938,0.8584 L0,0.8584 L0,13.2354 L5.461,13.2354 L5.461,14.6254 L3.485,14.6254 L3.485,16.0004 L12.453,16.0004 L12.453,14.6254 L10.478,14.6254 L10.478,13.2354 L15.938,13.2354 Z" id="Fill-1" mask="url(#mask-2)"></path>
                                </g>
                                <path d="M7.9692,7.7354 C9.1602,7.7354 10.1252,6.7704 10.1252,5.5794 C10.1252,4.3884 9.1602,3.4234 7.9692,3.4234 C6.7782,3.4234 5.8132,4.3884 5.8132,5.5794 C5.8132,6.7704 6.7782,7.7354 7.9692,7.7354" id="Fill-3"></path>
                            </g>
                        </g>
                    </g>
                </g>
            </g>
        </g>
    </g>
</svg>