<?xml version="1.0" encoding="UTF-8" ?>
<svg width="13px" height="18px" viewBox="0 0 13 18" version="1.1" xmlns="http://www.w3.org/2000/svg" xmlns:xlink="http://www.w3.org/1999/xlink">
    <!-- Generator: Sketch 57 (83077) - https://sketch.com -->
    <title>通知配置</title>
    <desc>Created with Sketch.</desc>
    <g id="Page-1" stroke="none" stroke-width="1" fill-rule="evenodd">
        <g id="导航图标" transform="translate(-68.000000, -828.000000)">
            <g id="Group-38" transform="translate(0.000000, -1.000000)">
                <g id="Group-29" transform="translate(0.000000, 0.991836)">
                    <g id="编组" transform="translate(66.000000, 46.008164)">
                        <g id="通知配置" transform="translate(2.000000, 782.000000)">
                            <path d="M10.5176,7.7537 L10.5176,4.5487 C10.5176,2.0367 8.6446,-0.0003 6.3336,-0.0003 C4.0226,-0.0003 2.1496,2.0367 2.1496,4.5487 L2.1496,7.7537 C2.1496,8.2177 2.0536,8.6747 1.8686,9.0927 L1.2386,10.5127 L11.4276,10.5127 L10.7986,9.0927 C10.6146,8.6747 10.5176,8.2177 10.5176,7.7537" id="Fill-1"></path>
                            <path d="M8.042,11.6107 C8.03,12.5457 7.271,13.2927 6.331,13.2927 C5.396,13.2927 4.637,12.5457 4.625,11.6107 L8.042,11.6107 Z" id="Fill-3"></path>
                            <path d="M6.334,15.7025 C4.078,15.7025 2.242,13.8665 2.242,11.6105 L3.394,11.6105 C3.394,13.2315 4.713,14.5505 6.334,14.5505 C7.955,14.5505 9.273,13.2315 9.273,11.6105 L10.426,11.6105 C10.426,13.8665 8.59,15.7025 6.334,15.7025" id="Fill-5"></path>
                            <path d="M6.334,17.9446 C2.841,17.9446 0,15.1026 0,11.6106 L1.152,11.6106 C1.152,14.4676 3.476,16.7926 6.334,16.7926 C9.191,16.7926 11.516,14.4676 11.516,11.6106 L12.668,11.6106 C12.668,15.1026 9.826,17.9446 6.334,17.9446" id="Fill-7"></path>
                        </g>
                    </g>
                </g>
            </g>
        </g>
    </g>
</svg>