<?xml version="1.0" encoding="UTF-8"?>
<svg width="14px" height="13px" viewBox="0 0 14 13" version="1.1" xmlns="http://www.w3.org/2000/svg" xmlns:xlink="http://www.w3.org/1999/xlink">
    <!-- Generator: Sketch 56.3 (81716) - https://sketch.com -->
    <title>服务器</title>
    <desc>Created with Sketch.</desc>
    <g id="Page-1" stroke="none" stroke-width="1" fill-rule="evenodd">
        <g id="导航模块02备份-2" transform="translate(-22.000000, -337.000000)" fill-rule="nonzero">
            <g id="Group-Copy-4" transform="translate(0.000000, -1.000000)">
                <g id="Group-38">
                    <g id="Group-29" transform="translate(0.000000, 0.991836)">
                        <g id="编组备份" transform="translate(10.000000, 271.008164)">
                            <g id="服务器" transform="translate(12.000000, 66.000000)">
                                <path d="M3.53991236,8.51951172e-05 L0.460087638,8.51951172e-05 C0.337269377,-0.00206571812 0.218662171,0.0365894924 0.131794604,0.107171478 C0.0449270372,0.177753463 -0.00264719954,0.274124669 0.00011381527,0.373917457 L0.00011381527,12.6260825 C-0.00264719954,12.7258753 0.0449270372,12.8222465 0.131794604,12.8928285 C0.218662171,12.9634105 0.337269377,13.0020657 0.460087638,12.9999148 L3.53991236,12.9999148 C3.66273062,13.0020657 3.78133783,12.9634105 3.8682054,12.8928285 C3.95507296,12.8222465 4.0026472,12.7258753 3.99988618,12.6260825 L3.99988618,0.373917457 C4.0026472,0.274124669 3.95507296,0.177753463 3.8682054,0.107171478 C3.78133783,0.0365894924 3.66273062,-0.00206571812 3.53991236,8.51951172e-05 Z M2.53996927,5.68752221 C2.53996927,5.91188176 2.31612438,6.0937611 2.03999772,6.0937611 C1.76387106,6.0937611 1.54002618,5.91188176 1.54002618,5.68752221 L1.54002618,1.62513325 C1.54002618,1.40077371 1.76387106,1.21889436 2.03999772,1.21889436 C2.31612438,1.21889436 2.53996927,1.40077371 2.53996927,1.62513325 L2.53996927,5.68752221 Z" id="形状"></path>
                                <path d="M8.53991236,8.51951172e-05 L5.46008764,8.51951172e-05 C5.33726938,-0.00206571812 5.21866217,0.0365894924 5.1317946,0.107171478 C5.04492704,0.177753463 4.9973528,0.274124669 5.00011382,0.373917457 L5.00011382,12.6260825 C4.9973528,12.7258753 5.04492704,12.8222465 5.1317946,12.8928285 C5.21866217,12.9634105 5.33726938,13.0020657 5.46008764,12.9999148 L8.53991236,12.9999148 C8.66273062,13.0020657 8.78133783,12.9634105 8.8682054,12.8928285 C8.95507296,12.8222465 9.0026472,12.7258753 8.99988618,12.6260825 L8.99988618,0.373917457 C9.0026472,0.274124669 8.95507296,0.177753463 8.8682054,0.107171478 C8.78133783,0.0365894924 8.66273062,-0.00206571812 8.53991236,8.51951172e-05 Z M7.53996927,5.68752221 C7.53996927,5.91188176 7.31612438,6.0937611 7.03999772,6.0937611 C6.76387106,6.0937611 6.54002618,5.91188176 6.54002618,5.68752221 L6.54002618,1.62513325 C6.54002618,1.40077371 6.76387106,1.21889436 7.03999772,1.21889436 C7.31612438,1.21889436 7.53996927,1.40077371 7.53996927,1.62513325 L7.53996927,5.68752221 Z" id="形状"></path>
                                <path d="M13.5399124,8.51951172e-05 L10.4600876,8.51951172e-05 C10.3372694,-0.00206571812 10.2186622,0.0365894924 10.1317946,0.107171478 C10.044927,0.177753463 9.9973528,0.274124669 10.0001138,0.373917457 L10.0001138,12.6260825 C9.9973528,12.7258753 10.044927,12.8222465 10.1317946,12.8928285 C10.2186622,12.9634105 10.3372694,13.0020657 10.4600876,12.9999148 L13.5399124,12.9999148 C13.6627306,13.0020657 13.7813378,12.9634105 13.8682054,12.8928285 C13.955073,12.8222465 14.0026472,12.7258753 13.9998862,12.6260825 L13.9998862,0.373917457 C14.0026472,0.274124669 13.955073,0.177753463 13.8682054,0.107171478 C13.7813378,0.0365894924 13.6627306,-0.00206571812 13.5399124,8.51951172e-05 Z M12.5399693,5.68752221 C12.5399693,5.91188176 12.3161244,6.0937611 12.0399977,6.0937611 C11.7638711,6.0937611 11.5400262,5.91188176 11.5400262,5.68752221 L11.5400262,1.62513325 C11.5400262,1.40077371 11.7638711,1.21889436 12.0399977,1.21889436 C12.3161244,1.21889436 12.5399693,1.40077371 12.5399693,1.62513325 L12.5399693,5.68752221 Z" id="形状"></path>
                            </g>
                        </g>
                    </g>
                </g>
            </g>
        </g>
    </g>
</svg>