<svg id="图层_1" data-name="图层 1" xmlns="http://www.w3.org/2000/svg" viewBox="0 0 14 14">
  <defs></defs>
  <title>维护</title>
  <path d="M16,10V8l-1.72-.86c-.07-.19-.15-.37-.23-.55l.61-1.83L13.24,3.34,11.41,4l-.55-.23L10,2H8L7.14,3.72,6.59,4,4.76,3.34,3.34,4.76,4,6.59c-.08.18-.16.36-.23.55L2,8v2l1.72.86c.07.19.15.37.23.55l-.61,1.83,1.42,1.42,1.83-.61.55.23L8,16h2l.86-1.72.55-.23,1.83.61,1.42-1.42-.61-1.83c.08-.18.16-.36.23-.55ZM9,11.8A2.8,2.8,0,1,1,11.8,9,2.81,2.81,0,0,1,9,11.8Z" transform="translate(-2 -2)" />
</svg>