<?xml version="1.0" encoding="UTF-8" ?>
<svg width="16px" height="15px" viewBox="0 0 16 15" version="1.1" xmlns="http://www.w3.org/2000/svg" xmlns:xlink="http://www.w3.org/1999/xlink">
    <!-- Generator: Sketch 57 (83077) - https://sketch.com -->
    <title>存储管理</title>
    <desc>Created with Sketch.</desc>
    <defs>
        <polygon id="path-1" points="0 0.955 14.083 0.955 14.083 13.6647 0 13.6647"></polygon>
    </defs>
    <g id="Page-1" stroke="none" stroke-width="1" fill-rule="evenodd">
        <g id="导航图标" transform="translate(-68.000000, -773.000000)">
            <g id="Group-38" transform="translate(0.000000, -1.000000)">
                <g id="Group-29" transform="translate(0.000000, 0.991836)">
                    <g id="编组" transform="translate(66.000000, 46.008164)">
                        <g id="存储管理" transform="translate(2.000000, 726.000000)">
                            <path d="M11.9893,12.6708 C11.1063,12.6708 10.3893,11.9538 10.3893,11.0778 C10.3893,10.1948 11.1063,9.4798 11.9893,9.4798 C12.8643,9.4798 13.5813,10.1948 13.5813,11.0778 C13.5813,11.9538 12.8643,12.6708 11.9893,12.6708 L11.9893,12.6708 Z M15.9703,11.5658 L15.9703,10.5118 L15.1463,10.2908 C15.0633,9.9558 14.9303,9.6418 14.7543,9.3568 L15.1603,8.5988 L14.4163,7.8538 L13.6683,8.2868 C13.3833,8.1138 13.0733,7.9818 12.7403,7.9028 L12.4903,7.0748 L11.4373,7.0748 L11.2143,7.9098 C10.8823,7.9908 10.5723,8.1218 10.2883,8.2958 L9.5243,7.8848 L8.7803,8.6288 L9.2093,9.3718 C9.0333,9.6588 8.9003,9.9728 8.8183,10.3088 L8.0003,10.5548 L8.0003,11.6088 L8.8123,11.8248 C8.8933,12.1678 9.0293,12.4868 9.2093,12.7788 L8.8103,13.5208 L9.5543,14.2658 L10.2773,13.8488 C10.5713,14.0288 10.8933,14.1668 11.2403,14.2478 L11.4803,15.0448 L12.5343,15.0448 L12.7483,14.2438 C13.0933,14.1608 13.4183,14.0238 13.7113,13.8398 L14.4463,14.2348 L15.1913,13.4898 L14.7703,12.7638 C14.9483,12.4708 15.0853,12.1508 15.1643,11.8078 L15.9703,11.5658 Z" id="Fill-1"></path>
                            <path d="M11.9893,12.6708 C11.1063,12.6708 10.3893,11.9538 10.3893,11.0778 C10.3893,10.1948 11.1063,9.4798 11.9893,9.4798 C12.8643,9.4798 13.5813,10.1948 13.5813,11.0778 C13.5813,11.9538 12.8643,12.6708 11.9893,12.6708 L11.9893,12.6708 Z M15.9703,11.5658 L15.9703,10.5118 L15.1463,10.2908 C15.0633,9.9558 14.9303,9.6418 14.7543,9.3568 L15.1603,8.5988 L14.4163,7.8538 L13.6683,8.2868 C13.3833,8.1138 13.0733,7.9818 12.7403,7.9028 L12.4903,7.0748 L11.4373,7.0748 L11.2143,7.9098 C10.8823,7.9908 10.5723,8.1218 10.2883,8.2958 L9.5243,7.8848 L8.7803,8.6288 L9.2093,9.3718 C9.0333,9.6588 8.9003,9.9728 8.8183,10.3088 L8.0003,10.5548 L8.0003,11.6088 L8.8123,11.8248 C8.8933,12.1678 9.0293,12.4868 9.2093,12.7788 L8.8103,13.5208 L9.5543,14.2658 L10.2773,13.8488 C10.5713,14.0288 10.8933,14.1668 11.2403,14.2478 L11.4803,15.0448 L12.5343,15.0448 L12.7483,14.2438 C13.0933,14.1608 13.4183,14.0238 13.7113,13.8398 L14.4463,14.2348 L15.1913,13.4898 L14.7703,12.7638 C14.9483,12.4708 15.0853,12.1508 15.1643,11.8078 L15.9703,11.5658 Z" id="Fill-3"></path>
                            <g id="编组" transform="translate(0.000000, 0.045300)">
                                <mask id="mask-2">
                                    <use xlink:href="#path-1"></use>
                                </mask>
                                <g id="Clip-6"></g>
                                <path d="M14.0002012,2.96671652 L14.0002012,6.90554701 L13.64,7.1047 C13.61,7.0947 13.58,7.0747 13.55,7.0647 L13.23,6.0247 L10.67,6.0247 L10.39,7.0847 C10.36,7.0947 10.33,7.1047 10.3,7.1247 L9.34,6.6047 L7.53,8.4247 L8.07,9.3547 C8.06,9.3847 8.04,9.4247 8.03,9.4547 L7,9.7637 L7,12.3347 L8.03,12.6047 C8.04,12.6447 8.06,12.6847 8.08,12.7237 L8,12.9595322 L0,12.9595322 L0,0.9547 L5.00955954,0.9547 L7.0415,2.96671652 L14.0002012,2.96671652 Z" id="Fill-5"></path>
                            </g>
                            <polygon id="Fill-7" points="14.0002012 1.00593287 7 1.00593287 8 1.99406713 14.0002012 1.99406713"></polygon>
                        </g>
                    </g>
                </g>
            </g>
        </g>
    </g>
</svg>