<svg id="图层_1" data-name="图层 1" xmlns="http://www.w3.org/2000/svg" viewBox="0 0 16.13 16.13">
  <defs></defs>
  <title>命中情报</title>
  <path d="M9,5.4a3.69,3.69,0,0,1,.87.1.7.7,0,0,0,.33-1.37A4.81,4.81,0,0,0,9,4a5,5,0,1,0,5,5,5.19,5.19,0,0,0-.12-1.12A.71.71,0,0,0,13,7.34a.69.69,0,0,0-.53.84A3.59,3.59,0,1,1,9,5.4Z" transform="translate(-0.94 -0.94)" />
  <path d="M16.85,7.17A.69.69,0,0,0,16,6.64a.71.71,0,0,0-.53.85A6.92,6.92,0,0,1,15.65,9a6.64,6.64,0,1,1-4.77-6.38.71.71,0,0,0,.39-1.36A8.24,8.24,0,0,0,9,.94a8.06,8.06,0,1,0,7.85,6.23Z" transform="translate(-0.94 -0.94)" />
  <path d="M9.68,7.32A1.75,1.75,0,0,0,9,7.19,1.8,1.8,0,1,0,10.82,9a1.72,1.72,0,0,0-.13-.68l2.23-2.23,1.67,0,2.29-2.31-2.65-.06V1L11.88,3.35l0,1.81Z" transform="translate(-0.94 -0.94)" />
</svg>