<?xml version="1.0" encoding="UTF-8" ?>
<svg width="15px" height="17px" viewBox="0 0 15 17" version="1.1" xmlns="http://www.w3.org/2000/svg" xmlns:xlink="http://www.w3.org/1999/xlink">
    <!-- Generator: Sketch 57 (83077) - https://sketch.com -->
    <title>用户管理</title>
    <desc>Created with Sketch.</desc>
    <defs>
        <polygon id="path-1" points="0.1388 0.54 7.6638 0.54 7.6638 8.0656 0.1388 8.0656"></polygon>
        <polygon id="path-3" points="0.9863 0.0289 8.957 0.0289 8.957 7.9999 0.9863 7.9999"></polygon>
        <polygon id="path-5" points="0.9863 0.0289 8.957 0.0289 8.957 7.9999 0.9863 7.9999"></polygon>
    </defs>
    <g id="Page-1" stroke="none" stroke-width="1" fill-rule="evenodd">
        <g id="导航图标" transform="translate(-68.000000, -741.000000)">
            <g id="Group-38" transform="translate(0.000000, -1.000000)">
                <g id="Group-29" transform="translate(0.000000, 0.991836)">
                    <g id="编组" transform="translate(66.000000, 46.008164)">
                        <g id="用户管理" transform="translate(2.000000, 694.000000)">
                            <path d="M7.0202,15.0682 L5.9902,14.7882 L5.9902,12.2282 L7.0202,11.9182 C7.0302,11.8782 7.0502,11.8472 7.0602,11.8182 L6.5202,10.8782 L7.9002,9.4982 L3.8702,9.4982 C1.7322,9.4982 0.0002,11.2302 0.0002,13.3682 L0.0002,15.4642 C0.0002,16.0352 0.4632,16.4982 1.0342,16.4982 L6.9502,16.4982 L6.5702,16.1182 L7.0702,15.1882 C7.0502,15.1482 7.0302,15.1082 7.0202,15.0682" id="Fill-1"></path>
                            <g id="编组" transform="translate(3.000000, 0.459900)">
                                <mask id="mask-2">
                                    <use xlink:href="#path-1"></use>
                                </mask>
                                <g id="Clip-4"></g>
                                <path d="M7.6638,4.3026 C7.6638,6.3806 5.9788,8.0656 3.9008,8.0656 C1.8228,8.0656 0.1388,6.3806 0.1388,4.3026 C0.1388,2.2246 1.8228,0.5396 3.9008,0.5396 C5.9788,0.5396 7.6638,2.2246 7.6638,4.3026" id="Fill-3"></path>
                            </g>
                            <g id="编组" transform="translate(6.000000, 9.459900)">
                                <mask id="mask-4">
                                    <use xlink:href="#path-3"></use>
                                </mask>
                                <g id="Clip-6"></g>
                                <path d="M4.9753,5.6249 C4.0923,5.6249 3.3763,4.9089 3.3763,4.0329 C3.3763,3.1499 4.0923,2.4339 4.9753,2.4339 C5.8513,2.4339 6.5683,3.1499 6.5683,4.0329 C6.5683,4.9089 5.8513,5.6249 4.9753,5.6249 L4.9753,5.6249 Z M8.9573,4.5199 L8.9573,3.4669 L8.1333,3.2459 C8.0503,2.9109 7.9173,2.5969 7.7403,2.3119 L8.1473,1.5539 L7.4023,0.8089 L6.6553,1.2409 C6.3703,1.0689 6.0593,0.9369 5.7263,0.8579 L5.4773,0.0289 L4.4233,0.0289 L4.2013,0.8639 C3.8693,0.9449 3.5583,1.0769 3.2753,1.2499 L2.5113,0.8389 L1.7663,1.5839 L2.1953,2.3269 C2.0193,2.6129 1.8863,2.9269 1.8053,3.2639 L0.9863,3.5099 L0.9863,4.5629 L1.7993,4.7799 C1.8793,5.1229 2.0163,5.4419 2.1953,5.7339 L1.7973,6.4759 L2.5413,7.2209 L3.2633,6.8029 C3.5573,6.9839 3.8803,7.1219 4.2273,7.2029 L4.4673,7.9999 L5.5203,7.9999 L5.7343,7.1989 C6.0803,7.1159 6.4043,6.9789 6.6983,6.7949 L7.4333,7.1889 L8.1773,6.4449 L7.7573,5.7179 C7.9353,5.4259 8.0723,5.1059 8.1513,4.7629 L8.9573,4.5199 Z" id="Fill-5"></path>
                            </g>
                            <g id="编组" transform="translate(6.000000, 9.459900)">
                                <mask id="mask-6">
                                    <use xlink:href="#path-5"></use>
                                </mask>
                                <g id="Clip-8"></g>
                                <path d="M4.9753,5.6249 C4.0923,5.6249 3.3763,4.9089 3.3763,4.0329 C3.3763,3.1499 4.0923,2.4339 4.9753,2.4339 C5.8513,2.4339 6.5683,3.1499 6.5683,4.0329 C6.5683,4.9089 5.8513,5.6249 4.9753,5.6249 L4.9753,5.6249 Z M8.9573,4.5199 L8.9573,3.4669 L8.1333,3.2459 C8.0503,2.9109 7.9173,2.5969 7.7403,2.3119 L8.1473,1.5539 L7.4023,0.8089 L6.6553,1.2409 C6.3703,1.0689 6.0593,0.9369 5.7263,0.8579 L5.4773,0.0289 L4.4233,0.0289 L4.2013,0.8639 C3.8693,0.9449 3.5583,1.0769 3.2753,1.2499 L2.5113,0.8389 L1.7663,1.5839 L2.1953,2.3269 C2.0193,2.6129 1.8863,2.9269 1.8053,3.2639 L0.9863,3.5099 L0.9863,4.5629 L1.7993,4.7799 C1.8793,5.1229 2.0163,5.4419 2.1953,5.7339 L1.7973,6.4759 L2.5413,7.2209 L3.2633,6.8029 C3.5573,6.9839 3.8803,7.1219 4.2273,7.2029 L4.4673,7.9999 L5.5203,7.9999 L5.7343,7.1989 C6.0803,7.1159 6.4043,6.9789 6.6983,6.7949 L7.4333,7.1889 L8.1773,6.4449 L7.7573,5.7179 C7.9353,5.4259 8.0723,5.1059 8.1513,4.7629 L8.9573,4.5199 Z" id="Fill-7"></path>
                            </g>
                        </g>
                    </g>
                </g>
            </g>
        </g>
    </g>
</svg>