<svg enable-background="new 0 0 14 14" viewBox="0 0 14 14" xmlns="http://www.w3.org/2000/svg" xmlns:xlink="http://www.w3.org/1999/xlink"><clipPath><path d="m-172.4 244.8-1-.3v-2.5l1-.3v-.1l-.5-.9 1.4-1.4h-4c-2.1 0-3.9 1.7-3.9 3.9v2.1c0 .6.5 1 1 1h5.9l-.4-.4.5-.9c.1-.1.1-.2 0-.2"/></clipPath><clipPath><path d="m-176.2 230.7h7.5v7.5h-7.5z"/></clipPath><clipPath><path d="m-172.4 239.2h8v8h-8z"/></clipPath><clipPath><path d="m-172.4 239.2h8v8h-8z"/></clipPath><clipPath><path d="m-178.5 221.4h13v-10.2h-13zm-1.5 1.5h16v-13.2h-16z"/></clipPath><clipPath><path d="m-177 212.7h4v4h-4z"/></clipPath><clipPath><path d="m-171 212.7h4v1h-4z"/></clipPath><clipPath><path d="m-171 215.7h4v1h-4z"/></clipPath><clipPath><path d="m-177 218.7h10v1h-10z"/></clipPath><clipPath><path d="m-169.7 263.3v-3.2c0-2.5-1.9-4.5-4.2-4.5s-4.2 2-4.2 4.5v3.2c0 .5-.1.9-.3 1.3l-.6 1.4h10.2l-.6-1.4c-.2-.4-.3-.9-.3-1.3"/></clipPath><clipPath><path d="m-172.1 267.1c0 .9-.8 1.7-1.7 1.7s-1.7-.7-1.7-1.7z"/></clipPath><clipPath><path d="m-173.9 271.2c-2.3 0-4.1-1.8-4.1-4.1h1.2c0 1.6 1.3 2.9 2.9 2.9s2.9-1.3 2.9-2.9h1.2c0 2.3-1.8 4.1-4.1 4.1"/></clipPath><clipPath><path d="m-173.9 273.5c-3.5 0-6.3-2.8-6.3-6.3h1.2c0 2.9 2.3 5.2 5.2 5.2s5.2-2.3 5.2-5.2h1.2c-.1 3.4-3 6.3-6.5 6.3"/></clipPath><clipPath><path d="m-143 351.6 1 1-3.7 3.7-2.3-2.3 1-1 1.3 1.3zm-6.5 9.1h10v-11h1v12h-11zm-1-14.1v16h13v-14h-2v-2.1h-11z"/></clipPath><mask id="a" height="14" maskUnits="userSpaceOnUse" width="14" x="0" y="0"><path d="m0 0h14v14h-14z" fill="#fff"/></mask><path d="m1.8 6.6c0-2.7 2.2-4.8 4.8-4.8s4.8 2.2 4.8 4.8-2.2 4.8-4.8 4.8-4.8-2.2-4.8-4.8m11.9 5.9-2-2c.8-1.1 1.4-2.5 1.4-4 0-3.6-3-6.6-6.6-6.6s-6.5 3.1-6.5 6.7 3 6.6 6.6 6.6c1.5 0 2.9-.5 4-1.4l2 2c.3.3.9.3 1.2 0 .3-.4.3-1-.1-1.3" mask="url(#a)"/></svg>